<svg xmlns="http://www.w3.org/2000/svg" xmlns:xlink="http://www.w3.org/1999/xlink" width="600" zoomAndPan="magnify" viewBox="0 0 450 449.999984" height="600" preserveAspectRatio="xMidYMid meet" version="1.0"><defs><clipPath id="d71dde8134"><path d="M 28.125 0 L 366 0 L 366 450 L 28.125 450 Z M 28.125 0 " clip-rule="nonzero"/></clipPath><clipPath id="f0792bf4a4"><path d="M 56 140 L 421.875 140 L 421.875 429 L 56 429 Z M 56 140 " clip-rule="nonzero"/></clipPath></defs><path fill="#000000" d="M 308.875 49.53125 L 84.273438 49.53125 C 80.414062 49.53125 77.257812 52.691406 77.257812 56.550781 C 77.257812 60.410156 80.414062 63.570312 84.273438 63.570312 L 308.875 63.570312 C 312.734375 63.570312 315.890625 60.410156 315.890625 56.550781 C 315.890625 52.691406 312.734375 49.53125 308.875 49.53125 Z M 308.875 49.53125 " fill-opacity="1" fill-rule="nonzero"/><path fill="#000000" d="M 308.875 84.625 L 84.273438 84.625 C 80.414062 84.625 77.257812 87.785156 77.257812 91.644531 C 77.257812 95.503906 80.414062 98.664062 84.273438 98.664062 L 308.875 98.664062 C 312.734375 98.664062 315.890625 95.503906 315.890625 91.644531 C 315.890625 87.785156 312.734375 84.625 308.875 84.625 Z M 308.875 84.625 " fill-opacity="1" fill-rule="nonzero"/><path fill="#000000" d="M 315.890625 126.738281 C 315.890625 122.878906 312.734375 119.71875 308.875 119.71875 L 84.273438 119.71875 C 80.414062 119.71875 77.257812 122.878906 77.257812 126.738281 C 77.257812 130.597656 80.414062 133.757812 84.273438 133.757812 L 308.875 133.757812 C 312.734375 133.757812 315.890625 130.597656 315.890625 126.738281 Z M 315.890625 126.738281 " fill-opacity="1" fill-rule="nonzero"/><path fill="#000000" d="M 84.273438 193.414062 C 80.414062 193.414062 77.257812 196.574219 77.257812 200.433594 C 77.257812 204.292969 80.414062 207.453125 84.273438 207.453125 L 157.972656 207.453125 C 161.832031 207.453125 164.988281 204.292969 164.988281 200.433594 C 164.988281 196.574219 161.832031 193.414062 157.972656 193.414062 Z M 84.273438 193.414062 " fill-opacity="1" fill-rule="nonzero"/><path fill="#000000" d="M 289.921875 154.8125 L 84.273438 154.8125 C 80.414062 154.8125 77.257812 157.972656 77.257812 161.832031 C 77.257812 165.691406 80.414062 168.851562 84.273438 168.851562 L 275.886719 168.851562 Z M 289.921875 154.8125 " fill-opacity="1" fill-rule="nonzero"/><g clip-path="url(#d71dde8134)"><path fill="#000000" d="M 351.6875 419.066406 C 351.335938 419.066406 351.335938 419.066406 350.984375 419.066406 L 350.984375 428.542969 C 350.984375 432.402344 347.828125 435.5625 343.96875 435.5625 L 49.179688 435.5625 C 45.320312 435.5625 42.164062 432.402344 42.164062 428.542969 L 42.164062 21.457031 C 42.164062 17.597656 45.320312 14.4375 49.179688 14.4375 L 343.96875 14.4375 C 347.828125 14.4375 350.984375 17.597656 350.984375 21.457031 L 350.984375 132.703125 C 352.390625 133.757812 353.441406 134.457031 354.847656 135.863281 L 365.023438 145.6875 L 365.023438 21.457031 C 365.023438 9.875 355.546875 0.402344 343.96875 0.402344 L 49.179688 0.402344 C 37.601562 0.402344 28.125 9.875 28.125 21.457031 L 28.125 428.542969 C 28.125 440.125 37.601562 449.597656 49.179688 449.597656 L 343.96875 449.597656 C 355.546875 449.597656 365.023438 440.125 365.023438 428.542969 L 365.023438 425.734375 L 356.601562 421.875 C 354.847656 421.523438 353.089844 420.472656 351.6875 419.066406 Z M 351.6875 419.066406 " fill-opacity="1" fill-rule="nonzero"/></g><path fill="#000000" d="M 350.984375 231.316406 C 355.195312 236.582031 360.109375 242.546875 365.023438 248.863281 L 365.023438 201.136719 L 350.984375 215.171875 Z M 350.984375 231.316406 " fill-opacity="1" fill-rule="nonzero"/><g clip-path="url(#f0792bf4a4)"><path fill="#000000" d="M 415.910156 292.378906 L 401.871094 288.871094 C 397.660156 287.816406 393.449219 288.519531 389.941406 290.625 C 389.238281 290.976562 388.535156 291.679688 387.835938 292.027344 L 371.691406 282.203125 C 356.601562 259.039062 327.824219 225.351562 324.664062 221.839844 C 324.664062 221.839844 359.058594 187.097656 359.410156 187.097656 C 366.777344 179.378906 366.777344 166.746094 359.058594 159.375 L 345.019531 146.039062 C 337.300781 138.667969 325.367188 139.019531 317.996094 146.390625 L 270.269531 194.117188 C 257.285156 192.363281 239.738281 194.46875 239.738281 194.46875 C 225.351562 196.222656 214.472656 205.699219 202.890625 212.71875 C 181.835938 225.703125 168.851562 241.492188 157.621094 256.933594 C 153.058594 262.902344 153.761719 272.023438 158.320312 277.640625 C 158.320312 277.640625 165.339844 286.0625 165.691406 286.414062 C 168.148438 288.519531 171.308594 289.570312 174.464844 290.273438 L 157.269531 307.46875 C 156.566406 308.171875 156.214844 308.875 155.867188 309.222656 L 128.140625 366.425781 L 109.542969 388.886719 L 103.925781 380.816406 C 101.820312 378.007812 97.960938 376.957031 94.804688 378.710938 L 83.921875 384.675781 L 80.765625 370.988281 C 80.0625 368.183594 77.605469 366.074219 74.800781 365.726562 C 71.992188 365.375 69.183594 367.128906 67.78125 369.585938 L 56.902344 392.046875 C 55.148438 395.554688 56.550781 399.765625 60.058594 401.519531 C 63.570312 403.273438 67.78125 401.871094 69.535156 398.363281 L 71.992188 393.449219 L 72.695312 396.957031 C 73.042969 399.0625 74.800781 400.820312 76.554688 401.871094 C 78.660156 402.925781 80.765625 402.574219 82.871094 401.519531 L 96.558594 394.152344 C 96.558594 394.152344 103.925781 404.328125 103.925781 404.328125 C 106.382812 407.835938 112 408.1875 114.804688 405.03125 L 136.914062 378.359375 L 177.625 358.355469 C 175.167969 362.214844 173.761719 366.425781 175.167969 370.988281 C 179.730469 383.972656 191.660156 388.886719 202.1875 393.097656 C 208.15625 395.554688 213.769531 397.660156 217.28125 400.820312 C 226.753906 409.941406 246.757812 410.292969 262.902344 410.292969 C 266.761719 410.292969 270.621094 410.644531 274.132812 410.644531 C 274.132812 410.644531 317.996094 408.890625 317.996094 408.890625 C 320.453125 408.890625 323.261719 408.1875 325.71875 407.835938 C 338 406.433594 349.933594 405.03125 358.355469 403.976562 C 358.707031 406.433594 360.109375 408.1875 362.566406 409.242188 C 362.566406 409.242188 404.679688 427.839844 405.03125 427.839844 C 408.539062 429.246094 412.75 427.839844 414.15625 424.332031 C 415.558594 420.820312 414.15625 416.609375 410.644531 415.207031 L 373.796875 399.0625 L 396.609375 303.960938 C 396.957031 302.90625 397.660156 302.207031 398.714844 302.558594 L 412.75 306.066406 C 416.609375 307.117188 420.472656 304.664062 421.171875 301.152344 C 421.875 297.644531 419.769531 293.433594 415.910156 292.378906 Z M 168.851562 268.515625 C 168.5 268.164062 168.5 268.164062 168.851562 268.515625 C 168.5 267.8125 168.851562 266.410156 169.203125 264.65625 C 181.132812 248.511719 192.363281 235.527344 210.261719 224.648438 C 213.066406 222.894531 215.523438 221.140625 217.980469 219.386719 C 225.703125 214.121094 232.71875 209.207031 241.492188 208.15625 C 246.054688 207.453125 252.023438 207.453125 257.285156 207.453125 L 211.664062 253.074219 C 196.925781 254.128906 189.554688 266.410156 179.730469 275.535156 C 178.675781 276.585938 176.570312 276.585938 175.167969 275.886719 Z M 149.199219 356.601562 C 149.898438 354.496094 164.289062 323.964844 164.289062 323.964844 L 181.835938 340.808594 Z M 172.359375 312.03125 L 327.824219 156.214844 C 329.929688 154.109375 333.089844 154.109375 335.195312 156.214844 C 335.195312 156.214844 349.230469 169.550781 349.230469 169.550781 C 351.335938 171.65625 351.335938 175.167969 349.230469 177.273438 L 194.117188 332.738281 Z M 263.601562 291.328125 L 276.9375 315.542969 C 276.585938 316.242188 276.585938 317.296875 276.238281 317.996094 C 272.726562 330.28125 267.464844 348.53125 257.285156 350.285156 C 257.285156 350.285156 245.707031 352.390625 245.707031 352.390625 C 238.6875 353.441406 231.316406 347.828125 224.648438 346.773438 C 216.929688 345.371094 208.15625 345.371094 199.734375 347.125 L 259.039062 287.816406 Z M 361.164062 389.238281 C 361.164062 389.238281 360.8125 389.238281 361.164062 389.238281 C 353.089844 390.992188 334.140625 392.746094 323.964844 394.152344 C 323.964844 394.152344 323.613281 394.152344 323.613281 394.152344 C 303.960938 397.308594 282.90625 396.957031 263.253906 396.609375 C 252.023438 396.609375 232.71875 396.257812 227.105469 390.992188 C 221.492188 385.730469 214.472656 382.921875 207.453125 380.113281 C 197.277344 376.253906 190.960938 373.445312 188.855469 367.128906 C 189.203125 366.078125 191.660156 363.621094 193.414062 362.917969 C 203.59375 359.410156 213.417969 358.355469 222.191406 360.109375 C 231.316406 361.863281 238.6875 367.480469 248.160156 365.726562 L 259.742188 363.621094 C 278.691406 360.460938 285.359375 336.949219 289.921875 321.507812 C 290.625 319.753906 290.976562 317.996094 291.328125 316.242188 C 292.027344 314.488281 291.679688 312.382812 290.625 310.628906 C 290.625 310.628906 275.183594 282.554688 275.183594 282.554688 C 273.78125 280.097656 270.972656 278.691406 269.21875 276.9375 L 314.839844 230.964844 C 320.105469 237.28125 347.476562 269.21875 360.8125 290.273438 C 361.515625 291.328125 362.214844 292.027344 362.917969 292.378906 L 381.515625 303.609375 Z M 361.164062 389.238281 " fill-opacity="1" fill-rule="nonzero"/></g></svg>